{
	"asset":	{
		"version":	"2.0",
		"generator":	"exported by Modelo"
	},
	"scene":	0,
	"scenes":	[{
			"nodes":	[0]
		}],
	"materials":	[{
			"pbrMetallicRoughness":	{
				"baseColorFactor":	[0.674509823322296, 0.674509823322296, 0.674509823322296, 1],
				"metallicFactor":	0,
				"roughnessFactor":	1
			},
			"name":	"Ty_Gray1",
			"doubleSided":	true
		}, {
			"pbrMetallicRoughness":	{
				"baseColorFactor":	[0.886274516582489, 0.886274516582489, 0.886274516582489, 1],
				"metallicFactor":	0,
				"roughnessFactor":	1
			},
			"name":	"[Color M01]",
			"doubleSided":	true
		}, {
			"pbrMetallicRoughness":	{
				"baseColorFactor":	[1, 1, 1, 1],
				"metallicFactor":	0,
				"roughnessFactor":	1
			},
			"name":	"mxdefault",
			"doubleSided":	true
		}, {
			"pbrMetallicRoughness":	{
				"baseColorFactor":	[0, 0, 0, 1],
				"metallicFactor":	0,
				"roughnessFactor":	1
			},
			"name":	"mxdefaultline",
			"doubleSided":	true
		}],
	"meshes":	[{
			"primitives":	[{
					"attributes":	{
						"POSITION":	1,
						"NORMAL":	2
					},
					"indices":	0,
					"material":	0
				}]
		}, {
			"primitives":	[{
					"attributes":	{
						"POSITION":	4,
						"NORMAL":	5
					},
					"indices":	3,
					"material":	2
				}]
		}, {
			"primitives":	[{
					"attributes":	{
						"POSITION":	7,
						"NORMAL":	8
					},
					"indices":	6,
					"material":	1
				}]
		}],
	"accessors":	[{
			"bufferView":	0,
			"byteOffset":	0,
			"componentType":	5125,
			"count":	546,
			"type":	"SCALAR",
			"name":	"accessorIndices_0",
			"max":	[221],
			"min":	[0]
		}, {
			"bufferView":	1,
			"byteOffset":	0,
			"componentType":	5126,
			"count":	222,
			"type":	"VEC3",
			"name":	"accessorPositions",
			"max":	[11.942757606506348, 16.102005004882813, 2.973386287689209],
			"min":	[0, 0, 0]
		}, {
			"bufferView":	2,
			"byteOffset":	0,
			"componentType":	5126,
			"count":	222,
			"type":	"VEC3",
			"name":	"accessorNormals",
			"max":	[1, 1, 1],
			"min":	[-1, -1, -1]
		}, {
			"bufferView":	0,
			"byteOffset":	2184,
			"componentType":	5125,
			"count":	318,
			"type":	"SCALAR",
			"name":	"accessorIndices_3",
			"max":	[179],
			"min":	[0]
		}, {
			"bufferView":	1,
			"byteOffset":	2664,
			"componentType":	5126,
			"count":	180,
			"type":	"VEC3",
			"name":	"accessorPositions",
			"max":	[11.942757606506348, 16.102005004882813, 2.9638612270355225],
			"min":	[0, 0, 0]
		}, {
			"bufferView":	2,
			"byteOffset":	2664,
			"componentType":	5126,
			"count":	180,
			"type":	"VEC3",
			"name":	"accessorNormals",
			"max":	[1, 1, 1],
			"min":	[-1, -1, -1]
		}, {
			"bufferView":	0,
			"byteOffset":	3456,
			"componentType":	5125,
			"count":	102,
			"type":	"SCALAR",
			"name":	"accessorIndices_6",
			"max":	[35],
			"min":	[0]
		}, {
			"bufferView":	1,
			"byteOffset":	4824,
			"componentType":	5126,
			"count":	36,
			"type":	"VEC3",
			"name":	"accessorPositions",
			"max":	[11.755249977111816, 15.9144983291626, 0],
			"min":	[0.18750803172588348, 0.18750803172588348, 0]
		}, {
			"bufferView":	2,
			"byteOffset":	4824,
			"componentType":	5126,
			"count":	36,
			"type":	"VEC3",
			"name":	"accessorNormals",
			"max":	[0, 0, -1],
			"min":	[0, 0, -1]
		}],
	"nodes":	[{
			"children":	[1, 2, 3],
			"matrix":	[1, 0, 0, 0, 0, 0, -1, 0, 0, 1, 0, 0, 0, 0, 0, 1]
		}, {
			"mesh":	0
		}, {
			"mesh":	2
		}, {
			"mesh":	1
		}],
	"bufferViews":	[{
			"buffer":	0,
			"byteOffset":	0,
			"byteLength":	3864,
			"name":	"bufferViewIndex"
		}, {
			"buffer":	0,
			"byteOffset":	3864,
			"byteLength":	5256,
			"byteStride":	12,
			"name":	"bufferViewPosition"
		}, {
			"buffer":	0,
			"byteOffset":	9120,
			"byteLength":	5256,
			"byteStride":	12,
			"name":	"bufferViewNormal"
		}],
	"buffers":	[{
			"byteLength":	14376,
			"uri":	"1762758.bin"
		}]
}